<svg xmlns="http://www.w3.org/2000/svg" viewBox="0 0 180 180">
  <defs>
    <linearGradient id="appleBg" x1="18" x2="162" y1="18" y2="162" gradientUnits="userSpaceOnUse">
      <stop offset="0" stop-color="#0ea5b7" />
      <stop offset="1" stop-color="#88E8F2" />
    </linearGradient>
  </defs>
  <rect width="180" height="180" rx="42" fill="url(#appleBg)" />
  <path
    d="M52 106c15-32 29-47 41-47 12 0 21 10 26 31 4 14 8 21 14 21 5 0 10-6 15-17l14 7c-8 22-19 33-33 33-16 0-26-11-31-32-2-10-5-15-9-15-5 0-12 8-20 24l-17-5Z"
    fill="#fff"
  />
</svg>
