<svg xmlns="http://www.w3.org/2000/svg" viewBox="0 0 512 512">
  <defs>
    <linearGradient id="maskBg" x1="64" x2="448" y1="64" y2="448" gradientUnits="userSpaceOnUse">
      <stop offset="0" stop-color="#0b6270" />
      <stop offset="1" stop-color="#88E8F2" />
    </linearGradient>
  </defs>
  <rect width="512" height="512" rx="160" fill="url(#maskBg)" />
  <circle cx="256" cy="256" r="150" fill="#062733" fill-opacity="0.18" />
  <path
    d="M153 301c41-88 78-131 111-131 31 0 53 27 65 80 8 35 16 52 28 52 12 0 24-15 35-46l38 18c-21 58-50 87-86 87-38 0-64-28-76-84-6-27-12-40-20-40-13 0-31 22-53 67l-42-3Z"
    fill="#ffffff"
  />
</svg>
