<svg xmlns="http://www.w3.org/2000/svg" viewBox="0 0 512 512">
  <defs>
    <linearGradient id="bg" x1="64" x2="448" y1="64" y2="448" gradientUnits="userSpaceOnUse">
      <stop offset="0" stop-color="#0ea5b7" />
      <stop offset="1" stop-color="#88E8F2" />
    </linearGradient>
    <linearGradient id="pulse" x1="144" x2="368" y1="176" y2="336" gradientUnits="userSpaceOnUse">
      <stop offset="0" stop-color="#ffffff" stop-opacity="0.98" />
      <stop offset="1" stop-color="#dffbff" stop-opacity="0.92" />
    </linearGradient>
  </defs>
  <rect width="512" height="512" rx="112" fill="url(#bg)" />
  <rect x="78" y="78" width="356" height="356" rx="92" fill="#072b37" fill-opacity="0.16" />
  <path
    d="M156 304c36-81 71-121 104-121 29 0 49 29 60 87 6 29 13 43 23 43 11 0 20-13 31-40l38 17c-20 48-44 72-72 72-31 0-53-25-64-73-7-30-14-45-22-45-11 0-29 22-53 65l-45-5Z"
    fill="url(#pulse)"
  />
  <circle cx="176" cy="180" r="18" fill="#dffbff" fill-opacity="0.85" />
  <circle cx="334" cy="150" r="12" fill="#dffbff" fill-opacity="0.7" />
</svg>
